Coordinates
version=1
nRows=26
nColumns=22
inDegrees=yes

Units are S.I. units (second, meters, Newtons, ...)
If the header above contains a line with 'inDegrees', this indicates whether rotational values are in degrees (yes) or radians (no).

endheader
time	pelvis_tilt	pelvis_list	pelvis_rotation	pelvis_tx	pelvis_ty	pelvis_tz	hip_flexion_r	hip_adduction_r	hip_rotation_r	knee_angle_r	ankle_angle_r	subtalar_angle_r	hip_flexion_l	hip_adduction_l	hip_rotation_l	knee_angle_l	ankle_angle_l	subtalar_angle_l	lumbar_extension	lumbar_bending	lumbar_rotation
      0.01000000	    -12.36386214	     -4.62636564	      2.96825032	     -1.07340094	      0.97629952	     -0.29814221	     16.79137429	      5.41413796	     -1.39121335	    -15.35827179	     16.14414633	    -11.99063038	     19.04969821	     -2.51171346	     -6.78054646	    -18.64419077	     20.64610820	      0.38273150	      6.73935709	      4.27731656	      4.05727228
      0.02000000	    -12.36860203	     -4.63226422	      2.97838284	     -1.07345240	      0.97629932	     -0.29827801	     16.78418807	      5.41048494	     -1.38377776	    -15.32803954	     16.12435371	    -11.97926388	     19.06194778	     -2.51087695	     -6.79938701	    -18.64931043	     20.64927696	      0.35946531	      6.73917885	      4.28412116	      4.01882780
      0.03000000	    -12.37152595	     -4.63705834	      2.97675352	     -1.07352859	      0.97629767	     -0.29840174	     16.78934863	      5.40766405	     -1.38468022	    -15.32207058	     16.12343100	    -11.97821701	     19.06599465	     -2.50861512	     -6.80004800	    -18.64288735	     20.64966583	      0.35744250	      6.72976544	      4.28628113	      4.01856817
      0.04000000	    -12.37506954	     -4.64135803	      2.97280953	     -1.07360325	      0.97629804	     -0.29853973	     16.79418982	      5.40346516	     -1.38599303	    -15.31502264	     16.12165814	    -11.97681017	     19.06930369	     -2.50468909	     -6.80137610	    -18.63492310	     20.65017642	      0.35513144	      6.72145501	      4.28939579	      4.01641221
      0.05000000	    -12.38353868	     -4.64250490	      2.96533951	     -1.07363463	      0.97629876	     -0.29869274	     16.79573331	      5.39416750	     -1.39030170	    -15.29625855	     16.10436335	    -11.96593271	     19.06330662	     -2.49596645	     -6.80561085	    -18.60534805	     20.65086662	      0.33886537	      6.72761677	      4.29145240	      4.00182947
      0.06000000	    -12.38663173	     -4.64738284	      2.95937391	     -1.07370729	      0.97629905	     -0.29882968	     16.79982463	      5.39089197	     -1.39141744	    -15.28951648	     16.10365190	    -11.96488444	     19.06776594	     -2.49319056	     -6.80565056	    -18.60086435	     20.65076298	      0.33723071	      6.71691786	      4.29088993	      4.00060962
      0.07000000	    -12.39014233	     -4.65163996	      2.95033268	     -1.07376809	      0.97629997	     -0.29897571	     16.80284059	      5.38649446	     -1.39307331	    -15.28138582	     16.10211578	    -11.96356849	     19.07090506	     -2.48934171	     -6.80610982	    -18.59633651	     20.65088277	      0.33546969	      6.70757526	      4.29193277	      3.99808812
      0.08000000	    -12.39291532	     -4.65139930	      2.94000265	     -1.07377195	      0.97631753	     -0.29912810	     16.78883370	      5.37749403	     -1.39125443	    -15.24839779	     16.07568210	    -11.94690570	     19.05828919	     -2.48056434	     -6.81701142	    -18.56990651	     20.65067264	      0.31588322	      6.70600789	      4.28701748	      3.99067174
      0.09000000	    -12.39595237	     -4.65606007	      2.92841715	     -1.07381915	      0.97632077	     -0.29927849	     16.79102953	      5.37385393	     -1.39230751	    -15.24147785	     16.07484621	    -11.94554860	     19.06000341	     -2.47688255	     -6.81694066	    -18.56699174	     20.65057679	      0.31447897	      6.69524981	      4.28791817	      3.98943199
      0.10000000	    -12.39990565	     -4.66054958	      2.91642409	     -1.07385966	      0.97632559	     -0.29942707	     16.79258423	      5.36991124	     -1.39351367	    -15.23217188	     16.07269255	    -11.94362731	     19.06095407	     -2.47338580	     -6.81893628	    -18.56158873	     20.65100333	      0.31303254	      6.68489241	      4.28716686	      3.98882542
      0.11000000	    -12.35342262	     -4.64203675	      2.86644754	     -1.07379677	      0.97644024	     -0.29952388	     16.71662515	      5.35756719	     -1.33482223	    -15.18963992	     16.05252733	    -11.87921564	     18.96773344	     -2.46219715	     -6.88727027	    -18.50277285	     20.63873214	      0.26524892	      6.62044889	      4.26641024	      4.04860667
      0.12000000	    -12.35924219	     -4.64730145	      2.85655709	     -1.07384930	      0.97644074	     -0.29966747	     16.72148551	      5.35397583	     -1.33780967	    -15.18106763	     16.05161689	    -11.87856311	     18.97158665	     -2.45930984	     -6.88901924	    -18.49684945	     20.63981747	      0.26521523	      6.60808845	      4.26419951	      4.04695542
      0.13000000	    -12.37129011	     -4.64122915	      2.83379376	     -1.07384904	      0.97644350	     -0.29980999	     16.72190421	      5.33923661	     -1.34594758	    -15.15622529	     16.03305051	    -11.87049256	     18.96565693	     -2.44669483	     -6.91723812	    -18.46992548	     20.64273385	      0.26376351	      6.61281367	      4.25311049	      4.06226512
      0.14000000	    -12.37764315	     -4.64661121	      2.82484648	     -1.07391715	      0.97644343	     -0.29993707	     16.72871887	      5.33689644	     -1.34655024	    -15.14846614	     16.03224970	    -11.86964706	     18.97127154	     -2.44506540	     -6.92039793	    -18.46265533	     20.64234036	      0.26366883	      6.59759197	      4.24783514	      4.06342790
      0.15000000	    -12.39837658	     -4.61891833	      2.76725217	     -1.07395330	      0.97644174	     -0.30001026	     16.75381258	      5.31207796	     -1.29064087	    -15.15228533	     16.00636324	    -11.84770686	     18.96643289	     -2.42257861	     -6.99737007	    -18.42630071	     20.61986080	      0.25836877	      6.60119955	      4.21246343	      4.12961427
      0.16000000	    -12.40479125	     -4.62430560	      2.75909628	     -1.07402380	      0.97643827	     -0.30014842	     16.75980191	      5.30879596	     -1.29274711	    -15.14370299	     16.00736869	    -11.84731148	     18.97334230	     -2.41999397	     -6.99955106	    -18.42051910	     20.62037751	      0.25828754	      6.58732383	      4.21102324	      4.13004131
      0.17000000	    -12.41171017	     -4.62912858	      2.75106519	     -1.07409758	      0.97643385	     -0.30029579	     16.76678837	      5.30455751	     -1.29413038	    -15.13512213	     16.00694812	    -11.84669381	     18.98077098	     -2.41598674	     -7.00314920	    -18.41462418	     20.62081432	      0.25805987	      6.57421054	      4.21054441	      4.13106620
      0.18000000	    -12.44862814	     -4.61414134	      2.72188792	     -1.07416202	      0.97639106	     -0.30042998	     16.80513975	      5.28219666	     -1.27058600	    -15.12733175	     15.97106072	    -11.83336653	     19.01466973	     -2.39719318	     -7.05436943	    -18.40694862	     20.61767134	      0.25050201	      6.60142653	      4.18947550	      4.15688153
      0.19000000	    -12.45514389	     -4.62136351	      2.71836053	     -1.07424880	      0.97638186	     -0.30058628	     16.81461247	      5.27975440	     -1.26819555	    -15.12380329	     15.97201191	    -11.83319272	     19.02351072	     -2.39488027	     -7.05538355	    -18.40095145	     20.61737978	      0.25028058	      6.58678277	      4.18897120	      4.15615005
      0.20000000	    -12.46220729	     -4.62805146	      2.71496158	     -1.07433580	      0.97637059	     -0.30075997	     16.82531869	      5.27565398	     -1.26401595	    -15.12147706	     15.97125278	    -11.83281407	     19.03357514	     -2.39056748	     -7.05682157	    -18.39645703	     20.61719505	      0.24974432	      6.57331806	      4.18953614	      4.15419768
      0.21000000	    -12.61542015	     -4.61504157	      2.68704154	     -1.07455249	      0.97611640	     -0.30089060	     17.02859767	      5.25057704	     -1.19788176	    -15.18114586	     15.95202345	    -11.81468260	     19.22671029	     -2.36437102	     -7.07283935	    -18.43872687	     20.59587837	      0.21344610	      6.72860527	      4.15578965	      4.17058830
      0.22000000	    -12.62069479	     -4.62434514	      2.68600241	     -1.07462720	      0.97610452	     -0.30108220	     17.03718807	      5.24750597	     -1.19827595	    -15.17855233	     15.95322901	    -11.81463254	     19.23401968	     -2.36165019	     -7.07379270	    -18.43353750	     20.59691749	      0.21318744	      6.71457249	      4.15539644	      4.16743563
      0.23000000	    -12.70187320	     -4.62873444	      2.71282718	     -1.07479428	      0.97594473	     -0.30133608	     17.15874322	      5.22186589	     -1.24350314	    -15.23106907	     15.98140505	    -11.79526305	     19.35382438	     -2.33678947	     -7.03133992	    -18.47278041	     20.60512841	      0.18841942	      6.78820543	      4.13958605	      4.12706159
      0.24000000	    -12.70698211	     -4.63985655	      2.71667914	     -1.07485226	      0.97593068	     -0.30155124	     17.16598759	      5.21902942	     -1.24033340	    -15.22777638	     15.98057510	    -11.79461627	     19.36034145	     -2.33403205	     -7.03337288	    -18.46690501	     20.60487429	      0.18805053	      6.77654245	      4.13558398	      4.12834057
      0.25000000	    -12.72911316	     -4.63721897	      2.72538990	     -1.07494957	      0.97588362	     -0.30178217	     17.19984876	      5.20023529	     -1.21513686	    -15.24057801	     15.96924682	    -11.78152326	     19.39633800	     -2.31165866	     -7.01582798	    -18.48079692	     20.60002686	      0.17953005	      6.78133607	      4.10999526	      4.13900302
      0.26000000	    -12.73446583	     -4.64963099	      2.73463150	     -1.07499104	      0.97586174	     -0.30203503	     17.20635333	      5.19546786	     -1.21398537	    -15.23925981	     15.97060842	    -11.78070258	     19.40292989	     -2.30677437	     -7.01952075	    -18.47363565	     20.60061052	      0.17858198	      6.77464954	      4.10788552	      4.14292429
